<svg   xmlns="http://www.w3.org/2000/svg" viewBox="0 0 600.000000 600.000000" preserveAspectRatio="xMidYMid meet" >
                <g fill="#b80808"  transform="translate(0.000000,600.000000) scale(0.100000,-0.100000)"
                stroke="none">
                <path d="M1497 4502 c-823 -823 -1497 -1500 -1497 -1503 0 -8 2989 -2993 3001
                -2998 15 -5 2999 2979 2999 2999 0 16 -2979 3000 -2995 3000 -6 0 -684 -674
                -1508 -1498z m2918 -92 l1410 -1410 -1413 -1413 -1412 -1412 -1412 1412 -1413
                1413 1410 1410 c775 775 1412 1410 1415 1410 3 0 640 -635 1415 -1410z"/>
                <path d="M1689 4005 c-34 -19 -54 -68 -53 -131 0 -59 22 -99 62 -117 20 -9
                270 -13 987 -18 881 -5 965 -7 1019 -23 128 -38 213 -104 236 -183 7 -24 10
                -107 8 -230 l-3 -191 -30 -39 c-39 -48 -118 -88 -215 -109 -64 -14 -187 -17
                -845 -21 -864 -5 -815 -1 -862 -80 -22 -37 -25 -53 -21 -104 4 -50 9 -65 34
                -89 19 -19 345 -175 967 -464 848 -395 942 -436 988 -436 35 0 60 6 79 20 35
                25 70 95 70 141 0 43 -28 97 -60 116 -14 7 -340 149 -725 313 l-700 299 375 1
                c427 1 681 12 790 35 284 59 434 174 485 372 18 70 21 423 4 505 -44 214 -212
                351 -515 419 -99 23 -103 23 -1074 26 -834 2 -979 1 -1001 -12z"/>
                </g>
</svg>